# xmcd
#
# Track frame offsets:
#	150
#	4432
#	34086
#	67059
#	87256
#	111704
#	150390
#	184346
#	217033
#	238597
#
# Disc length: 3607 seconds
#
# Revision: 1
# Processed by: cddbd v1.5.2PL0 Copyright (c) Steve Scherf et al.
# Submitted via: audiograbber 1.83.01
#
DISCID=8f0e150a
DTITLE=Grateful Dead - 80-09-29 Warfield Theatre, San Francisco CA
DYEAR=1900
DGENRE=
TTITLE0=Tuning
TTITLE1=Jack Straw
TTITLE2=They Love Each Other
TTITLE3=El Paso
TTITLE4=Brown Eyed Women
TTITLE5=It's All Over Now
TTITLE6=Candyman
TTITLE7=Minglewood Blues
TTITLE8=China Cat Sunflower
TTITLE9=I Know You Rider
EXTD=
EXTT0=
EXTT1=
EXTT2=
EXTT3=
EXTT4=
EXTT5=
EXTT6=
EXTT7=
EXTT8=
EXTT9=
PLAYORDER=
